<svg width="44" height="44" fill="none" xmlns="http://www.w3.org/2000/svg"><rect id="logo" rx="11.5" width="43" height="43" transform="translate(.5 .5)" fill="#8BAA36" fill-opacity="1"/><path id="Vector" d="M10 10.1V15.66v-.11m0 0c0 1.56.67 2.94 1.73 3.83.51.44.85 1.02.85 1.68v9.1c0 1.01.87 1.84 1.94 1.84 1.08 0 1.95-.83 1.95-1.84v-9.1c0-.66.34-1.24.85-1.68 1.05-.89 1.73-2.27 1.73-3.83V10.1v5.45M14.52 16.11V10" stroke="#FAFAFA" stroke-opacity="1" stroke-width="2" stroke-linejoin="round" stroke-linecap="round"/><path id="Vector" d="M30.7 10.06h-1.29c-2.15 0-3.89 1.64-3.89 3.66v7.34c0 1.59 1.09 2.94 2.59 3.44v5.66c0 1.01.87 1.83 1.94 1.83 1.08 0 1.95-.82 1.95-1.83V11.28c0-.67-.59-1.22-1.3-1.22Z" stroke="#FAFAFA" stroke-opacity="1" stroke-width="2" stroke-linejoin="round"/></svg>