<svg width="52" height="52" fill="none" xmlns="http://www.w3.org/2000/svg"><defs><filter id="filter_3_714_dd" x="0" y="0" width="52" height="52" filterUnits="userSpaceOnUse" color-interpolation-filters="sRGB"><feFlood flood-opacity="0" result="BackgroundImageFix"/><feColorMatrix in="SourceAlpha" values="0 0 0 0 0 0 0 0 0 0 0 0 0 0 0 0 0 0 127 0" result="hardAlpha"/><feOffset dy="4"/><feGaussianBlur stdDeviation="1.333"/><feComposite in2="hardAlpha" operator="out" k2="-1" k3="1"/><feColorMatrix values="0 0 0 0 0 0 0 0 0 0 0 0 0 0 0 0 0 0 0.25 0"/><feBlend in2="BackgroundImageFix" result="effect_dropShadow_1"/><feBlend in="SourceGraphic" in2="effect_dropShadow_1" result="shape"/></filter></defs><g filter="url('#filter_3_714_dd')"><rect id="logo" rx="11.5" width="43" height="43" transform="translate(4.5 .5)" fill="#EBF3D4" fill-opacity="1"/><path id="Vector" d="M14 10.1V15.66v-.11m0 0c0 1.56.67 2.94 1.73 3.83.51.44.85 1.02.85 1.68v9.1c0 1.01.87 1.84 1.94 1.84 1.08 0 1.95-.83 1.95-1.84v-9.1c0-.66.34-1.24.85-1.68 1.05-.89 1.73-2.27 1.73-3.83V10.1v5.45M18.52 16.11V10" stroke="#8BAA36" stroke-opacity="1" stroke-width="2" stroke-linejoin="round" stroke-linecap="round"/><path id="Vector" d="M34.7 10.06h-1.29c-2.15 0-3.89 1.64-3.89 3.66v7.34c0 1.59 1.09 2.94 2.59 3.44v5.66c0 1.01.87 1.83 1.94 1.83 1.08 0 1.95-.82 1.95-1.83V11.28c0-.67-.59-1.22-1.3-1.22Z" stroke="#8BAA36" stroke-opacity="1" stroke-width="2" stroke-linejoin="round"/></g></svg>