<svg width="10.000000" height="10.000000" viewBox="0 0 18 20" fill="" xmlns="http://www.w3.org/2000/svg" xmlns:xlink="http://www.w3.org/1999/xlink">
  
  <defs/>
  <path id="Icon" d="M1 19C1 17.6 1 16.9 1.17 16.33C1.55 15.06 2.56 14.06 3.83 13.67C4.4 13.5 5.1 13.5 6.5 13.5L11.5 13.5C12.89 13.5 13.59 13.5 14.16 13.67C15.43 14.06 16.44 15.06 16.82 16.33C17 16.9 17 17.6 17 19M9 10C6.51 10 4.5 7.98 4.5 5.5C4.5 3.01 6.51 1 9 1C11.48 1 13.5 3.01 13.5 5.5C13.5 7.98 11.48 10 9 10Z" stroke="#0" stroke-opacity="1.000000" stroke-width="2.000000" stroke-linejoin="round" stroke-linecap="round"/>
</svg>
