<svg width="21.200195" height="17.200195" viewBox="0 0 21.2002 17.2002" fill="none" xmlns="http://www.w3.org/2000/svg" xmlns:xlink="http://www.w3.org/1999/xlink">
	<desc>
			Created with Pixso.
	</desc>
	<defs/>
	<path id="Path 13" d="M18.6 0.6C19.12 0.6 19.63 0.81 20.01 1.18C20.38 1.56 20.59 2.07 20.6 2.6L20.6 14.6C20.59 15.13 20.38 15.63 20.01 16.01C19.63 16.38 19.12 16.59 18.6 16.6L2.6 16.6C2.07 16.59 1.56 16.38 1.18 16.01C0.81 15.63 0.6 15.13 0.6 14.6L0.6 2.6C0.6 2.07 0.81 1.56 1.18 1.18C1.56 0.81 2.07 0.6 2.6 0.6L18.6 0.6Z" stroke="#FAFAFA" stroke-opacity="1.000000" stroke-width="1.200000" stroke-linejoin="round"/>
</svg>
