<svg width="8.000000" height="15.000000" viewBox="0 0 8 15" fill="none" xmlns="http://www.w3.org/2000/svg" xmlns:xlink="http://www.w3.org/1999/xlink">
	<desc>
			Created with Pixso.
	</desc>
	<defs/>
	<path id="Vector" d="M7.64 0.39C7.75 0.51 7.84 0.66 7.9 0.82C7.96 0.99 8 1.16 8 1.34C8 1.51 7.96 1.69 7.9 1.85C7.84 2.01 7.75 2.16 7.64 2.28L2.93 7.5L7.64 12.71C7.87 12.96 7.99 13.3 7.99 13.66C7.99 14.01 7.87 14.35 7.64 14.6C7.41 14.85 7.1 15 6.78 15C6.46 15 6.15 14.85 5.93 14.6L0.35 8.44C0.24 8.31 0.15 8.16 0.09 8C0.03 7.84 0 7.67 0 7.49C0 7.31 0.03 7.14 0.09 6.98C0.15 6.81 0.24 6.67 0.35 6.54L5.93 0.38C6.39 -0.13 7.17 -0.13 7.64 0.39Z" fill="#A9A9A9" fill-opacity="0.730000" fill-rule="nonzero"/>
</svg>
