<svg width="52.000000" height="52.000000" viewBox="0 0 52 52" fill="none" xmlns="http://www.w3.org/2000/svg" xmlns:xlink="http://www.w3.org/1999/xlink">
	<desc>
			Created with Pixso.
	</desc>
	<defs>
		<filter id="filter_3_714_dd" x="0.000000" y="0.000000" width="52.000000" height="52.000000" filterUnits="userSpaceOnUse" color-interpolation-filters="sRGB">
			<feFlood flood-opacity="0" result="BackgroundImageFix"/>
			<feColorMatrix in="SourceAlpha" type="matrix" values="0 0 0 0 0 0 0 0 0 0 0 0 0 0 0 0 0 0 127 0" result="hardAlpha"/>
			<feOffset dx="0" dy="4"/>
			<feGaussianBlur stdDeviation="1.33333"/>
			<feComposite in2="hardAlpha" operator="out" k2="-1" k3="1"/>
			<feColorMatrix type="matrix" values="0 0 0 0 0 0 0 0 0 0 0 0 0 0 0 0 0 0 0.25 0"/>
			<feBlend mode="normal" in2="BackgroundImageFix" result="effect_dropShadow_1"/>
			<feBlend mode="normal" in="SourceGraphic" in2="effect_dropShadow_1" result="shape"/>
		</filter>
	</defs>
	<g filter="url(#filter_3_714_dd)">
		<rect id="logo" rx="11.500000" width="43.000000" height="43.000000" transform="translate(4.500000 0.500000)" fill="#EBF3D4" fill-opacity="1.000000"/>
		<path id="Vector" d="M14 10.1L14 15.55L14 15.66L14 15.55M14 15.55C14 17.11 14.67 18.49 15.73 19.38C16.24 19.82 16.58 20.4 16.58 21.06L16.58 30.16C16.58 31.17 17.45 32 18.52 32C19.6 32 20.47 31.17 20.47 30.16L20.47 21.06C20.47 20.4 20.81 19.82 21.32 19.38C22.37 18.49 23.05 17.11 23.05 15.55L23.05 10.1L23.05 15.55" stroke="#8BAA36" stroke-opacity="1.000000" stroke-width="2.000000" stroke-linejoin="round" stroke-linecap="round"/>
		<path id="Vector" d="M18.52 16.11L18.52 10" stroke="#8BAA36" stroke-opacity="1.000000" stroke-width="2.000000" stroke-linejoin="round" stroke-linecap="round"/>
		<path id="Vector" d="M34.7 10.06L33.41 10.06C31.26 10.06 29.52 11.7 29.52 13.72L29.52 21.06C29.52 22.65 30.61 24 32.11 24.5L32.11 30.16C32.11 31.17 32.98 31.99 34.05 31.99C35.13 31.99 36 31.17 36 30.16L36 24.72L36 11.28C36 10.61 35.41 10.06 34.7 10.06Z" stroke="#8BAA36" stroke-opacity="1.000000" stroke-width="2.000000" stroke-linejoin="round"/>
	</g>
</svg>
