<svg width="12.574707" height="12.574921" viewBox="0 0 12.5747 12.5749" fill="none" xmlns="http://www.w3.org/2000/svg" xmlns:xlink="http://www.w3.org/1999/xlink">
	<desc>
			Created with Pixso.
	</desc>
	<defs/>
	<path id="Icon" d="M9.1 1.13C9.75 0.48 10.79 0.48 11.44 1.13C12.08 1.77 12.08 2.82 11.44 3.46L4.06 10.83C3.77 11.13 3.62 11.28 3.45 11.39C3.3 11.49 3.14 11.57 2.97 11.62C2.77 11.68 2.57 11.71 2.15 11.75L0.64 11.92L0.81 10.41C0.86 10 0.88 9.79 0.94 9.6C1 9.43 1.08 9.26 1.18 9.11C1.29 8.94 1.44 8.8 1.73 8.5L9.1 1.13Z" stroke="#23262A" stroke-opacity="1.000000" stroke-width="1.300000" stroke-linejoin="round"/>
</svg>
