<svg width="8.000000" height="15.000000" viewBox="0 0 8 15" fill="none" xmlns="http://www.w3.org/2000/svg" xmlns:xlink="http://www.w3.org/1999/xlink">
	<desc>
			Created with Pixso.
	</desc>
	<defs/>
	<path id="Vector" d="M0.35 0.39C0.24 0.51 0.15 0.66 0.09 0.82C0.03 0.99 0 1.16 0 1.34C0 1.51 0.03 1.69 0.09 1.85C0.15 2.01 0.24 2.16 0.35 2.28L5.06 7.5L0.35 12.71C0.12 12.96 0 13.3 0 13.66C0 14.01 0.12 14.35 0.35 14.6C0.58 14.85 0.89 15 1.21 15C1.53 15 1.84 14.85 2.06 14.6L7.64 8.44C7.75 8.31 7.84 8.16 7.9 8C7.96 7.84 8 7.67 8 7.49C8 7.31 7.96 7.14 7.9 6.98C7.84 6.81 7.75 6.67 7.64 6.54L2.06 0.38C1.6 -0.13 0.82 -0.13 0.35 0.39Z" fill="#A9A9A9" fill-opacity="0.730000" fill-rule="nonzero"/>
</svg>
