<svg width="24.000000" height="24.000000" viewBox="0 0 24 24" fill="none" xmlns="http://www.w3.org/2000/svg" xmlns:xlink="http://www.w3.org/1999/xlink">
	<desc>
			Created with Pixso.
	</desc>
	<defs>
		<clipPath id="clip3_2174">
			<rect rx="-0.500000" width="23.000000" height="23.000000" transform="translate(0.500000 0.500000)" fill="white" fill-opacity="0"/>
		</clipPath>
	</defs>
	<rect rx="-0.500000" width="23.000000" height="23.000000" transform="translate(0.500000 0.500000)" fill="#FFFFFF" fill-opacity="0"/>
	<g clip-path="url(#clip3_2174)">
		<path d="M8 6L8 5.2C8 4.07 8 3.51 8.21 3.09C8.4 2.71 8.71 2.4 9.09 2.21C9.51 2 10.07 2 11.2 2L12.8 2C13.92 2 14.48 2 14.9 2.21C15.28 2.4 15.59 2.71 15.78 3.09C16 3.51 16 4.07 16 5.2L16 6M10 11.5L10 16.5M14 11.5L14 16.5M3 6L21 6M19 6L19 17.2C19 18.88 19 19.72 18.67 20.36C18.38 20.92 17.92 21.38 17.36 21.67C16.72 22 15.88 22 14.2 22L9.79 22C8.11 22 7.27 22 6.63 21.67C6.07 21.38 5.61 20.92 5.32 20.36C5 19.72 5 18.88 5 17.2L5 6" stroke="#22252A" stroke-opacity="1.000000" stroke-width="2.000000" stroke-linejoin="round" stroke-linecap="round"/>
	</g>
</svg>
